<mxfile host="app.diagrams.net" modified="2023-09-23T15:23:57.008Z" agent="Mozilla/5.0 (Windows NT 10.0; Win64; x64) AppleWebKit/537.36 (KHTML, like Gecko) Chrome/116.0.0.0 Safari/537.36" version="21.7.5" etag="K5ZiqcFfN1IrB_hRzwqy" type="device">
  <diagram id="G0VF1QchmEyB6aUMGaJx" name="ページ1">
    <mxGraphModel dx="2261" dy="782" grid="1" gridSize="10" guides="1" tooltips="1" connect="1" arrows="1" fold="1" page="1" pageScale="1" pageWidth="827" pageHeight="1169" math="0" shadow="0">
      <root>
        <mxCell id="0" />
        <mxCell id="1" parent="0" />
        <mxCell id="GUA7JTQh2Uvn7c-vaKez-72" value="" style="rounded=0;whiteSpace=wrap;html=1;dashed=1;" vertex="1" parent="1">
          <mxGeometry x="580" y="720" width="360" height="120" as="geometry" />
        </mxCell>
        <mxCell id="GUA7JTQh2Uvn7c-vaKez-63" value="Arduino&lt;br&gt;MKR WAN 1310" style="rounded=0;whiteSpace=wrap;html=1;" vertex="1" parent="1">
          <mxGeometry x="361" y="760" width="120" height="60" as="geometry" />
        </mxCell>
        <mxCell id="GUA7JTQh2Uvn7c-vaKez-64" value="" style="endArrow=none;html=1;rounded=0;" edge="1" parent="1">
          <mxGeometry width="50" height="50" relative="1" as="geometry">
            <mxPoint x="280.5" y="720" as="sourcePoint" />
            <mxPoint x="361" y="790" as="targetPoint" />
            <Array as="points">
              <mxPoint x="280.5" y="790" />
            </Array>
          </mxGeometry>
        </mxCell>
        <mxCell id="GUA7JTQh2Uvn7c-vaKez-65" value="" style="endArrow=none;html=1;rounded=0;" edge="1" parent="1">
          <mxGeometry width="50" height="50" relative="1" as="geometry">
            <mxPoint x="260.5" y="720" as="sourcePoint" />
            <mxPoint x="300.5" y="720" as="targetPoint" />
            <Array as="points">
              <mxPoint x="280.5" y="760" />
            </Array>
          </mxGeometry>
        </mxCell>
        <mxCell id="GUA7JTQh2Uvn7c-vaKez-68" value="" style="edgeStyle=orthogonalEdgeStyle;rounded=0;orthogonalLoop=1;jettySize=auto;html=1;fillColor=#dae8fc;strokeColor=#6c8ebf;strokeWidth=2;startArrow=block;startFill=1;endArrow=block;endFill=1;" edge="1" parent="1" source="GUA7JTQh2Uvn7c-vaKez-66" target="GUA7JTQh2Uvn7c-vaKez-67">
          <mxGeometry relative="1" as="geometry" />
        </mxCell>
        <mxCell id="GUA7JTQh2Uvn7c-vaKez-69" value="" style="edgeStyle=orthogonalEdgeStyle;rounded=0;orthogonalLoop=1;jettySize=auto;html=1;fillColor=#d5e8d4;strokeColor=#82b366;strokeWidth=2;startArrow=block;startFill=1;endArrow=block;endFill=1;" edge="1" parent="1" source="GUA7JTQh2Uvn7c-vaKez-66" target="GUA7JTQh2Uvn7c-vaKez-63">
          <mxGeometry relative="1" as="geometry" />
        </mxCell>
        <mxCell id="GUA7JTQh2Uvn7c-vaKez-66" value="CANコントローラ&lt;br&gt;MCP2515" style="rounded=0;whiteSpace=wrap;html=1;" vertex="1" parent="1">
          <mxGeometry x="600.5" y="760" width="120" height="60" as="geometry" />
        </mxCell>
        <mxCell id="GUA7JTQh2Uvn7c-vaKez-76" style="edgeStyle=orthogonalEdgeStyle;rounded=0;orthogonalLoop=1;jettySize=auto;html=1;fillColor=#dae8fc;strokeColor=#6c8ebf;startArrow=block;startFill=1;endArrow=block;endFill=1;strokeWidth=2;" edge="1" parent="1" source="GUA7JTQh2Uvn7c-vaKez-67">
          <mxGeometry relative="1" as="geometry">
            <mxPoint x="1040" y="790" as="targetPoint" />
          </mxGeometry>
        </mxCell>
        <mxCell id="GUA7JTQh2Uvn7c-vaKez-67" value="CANトランシーバ&lt;br&gt;MCP2562" style="rounded=0;whiteSpace=wrap;html=1;" vertex="1" parent="1">
          <mxGeometry x="800.5" y="760" width="120" height="60" as="geometry" />
        </mxCell>
        <mxCell id="GUA7JTQh2Uvn7c-vaKez-71" value="CANインターフェイス" style="text;html=1;strokeColor=none;fillColor=none;align=center;verticalAlign=middle;whiteSpace=wrap;rounded=0;fontSize=18;" vertex="1" parent="1">
          <mxGeometry x="665" y="720" width="190" height="30" as="geometry" />
        </mxCell>
        <mxCell id="GUA7JTQh2Uvn7c-vaKez-73" value="LoRa" style="text;html=1;strokeColor=none;fillColor=none;align=center;verticalAlign=middle;whiteSpace=wrap;rounded=0;" vertex="1" parent="1">
          <mxGeometry x="280.5" y="760" width="60" height="30" as="geometry" />
        </mxCell>
        <mxCell id="GUA7JTQh2Uvn7c-vaKez-74" value="" style="endArrow=none;html=1;rounded=0;shape=link;fillColor=#dae8fc;strokeColor=#6c8ebf;strokeWidth=4;" edge="1" parent="1">
          <mxGeometry width="50" height="50" relative="1" as="geometry">
            <mxPoint x="1040" y="1170" as="sourcePoint" />
            <mxPoint x="1039.5" y="580" as="targetPoint" />
          </mxGeometry>
        </mxCell>
        <mxCell id="GUA7JTQh2Uvn7c-vaKez-75" value="" style="endArrow=none;html=1;rounded=0;shape=link;fillColor=#f8cecc;strokeColor=#b85450;strokeWidth=4;" edge="1" parent="1">
          <mxGeometry width="50" height="50" relative="1" as="geometry">
            <mxPoint x="1060" y="1170" as="sourcePoint" />
            <mxPoint x="1060" y="580" as="targetPoint" />
          </mxGeometry>
        </mxCell>
        <mxCell id="GUA7JTQh2Uvn7c-vaKez-77" value="" style="rounded=0;whiteSpace=wrap;html=1;dashed=1;" vertex="1" parent="1">
          <mxGeometry x="580" y="960" width="360" height="120" as="geometry" />
        </mxCell>
        <mxCell id="GUA7JTQh2Uvn7c-vaKez-78" value="Arduino&lt;br&gt;MKR WAN 1310" style="rounded=0;whiteSpace=wrap;html=1;" vertex="1" parent="1">
          <mxGeometry x="361" y="1000" width="120" height="60" as="geometry" />
        </mxCell>
        <mxCell id="GUA7JTQh2Uvn7c-vaKez-79" value="" style="endArrow=none;html=1;rounded=0;" edge="1" parent="1">
          <mxGeometry width="50" height="50" relative="1" as="geometry">
            <mxPoint x="280.5" y="960" as="sourcePoint" />
            <mxPoint x="361" y="1030" as="targetPoint" />
            <Array as="points">
              <mxPoint x="280.5" y="1030" />
            </Array>
          </mxGeometry>
        </mxCell>
        <mxCell id="GUA7JTQh2Uvn7c-vaKez-80" value="" style="endArrow=none;html=1;rounded=0;" edge="1" parent="1">
          <mxGeometry width="50" height="50" relative="1" as="geometry">
            <mxPoint x="260.5" y="960" as="sourcePoint" />
            <mxPoint x="300.5" y="960" as="targetPoint" />
            <Array as="points">
              <mxPoint x="280.5" y="1000" />
            </Array>
          </mxGeometry>
        </mxCell>
        <mxCell id="GUA7JTQh2Uvn7c-vaKez-81" value="" style="edgeStyle=orthogonalEdgeStyle;rounded=0;orthogonalLoop=1;jettySize=auto;html=1;fillColor=#dae8fc;strokeColor=#6c8ebf;strokeWidth=2;startArrow=block;startFill=1;endArrow=block;endFill=1;" edge="1" parent="1" source="GUA7JTQh2Uvn7c-vaKez-83" target="GUA7JTQh2Uvn7c-vaKez-85">
          <mxGeometry relative="1" as="geometry" />
        </mxCell>
        <mxCell id="GUA7JTQh2Uvn7c-vaKez-82" value="" style="edgeStyle=orthogonalEdgeStyle;rounded=0;orthogonalLoop=1;jettySize=auto;html=1;fillColor=#d5e8d4;strokeColor=#82b366;strokeWidth=2;startArrow=block;startFill=1;endArrow=block;endFill=1;" edge="1" parent="1" source="GUA7JTQh2Uvn7c-vaKez-83" target="GUA7JTQh2Uvn7c-vaKez-78">
          <mxGeometry relative="1" as="geometry" />
        </mxCell>
        <mxCell id="GUA7JTQh2Uvn7c-vaKez-83" value="CANコントローラ&lt;br&gt;MCP2515" style="rounded=0;whiteSpace=wrap;html=1;" vertex="1" parent="1">
          <mxGeometry x="600.5" y="1000" width="120" height="60" as="geometry" />
        </mxCell>
        <mxCell id="GUA7JTQh2Uvn7c-vaKez-84" style="edgeStyle=orthogonalEdgeStyle;rounded=0;orthogonalLoop=1;jettySize=auto;html=1;fillColor=#dae8fc;strokeColor=#6c8ebf;startArrow=block;startFill=1;endArrow=block;endFill=1;strokeWidth=2;" edge="1" parent="1" source="GUA7JTQh2Uvn7c-vaKez-85">
          <mxGeometry relative="1" as="geometry">
            <mxPoint x="1040" y="1030" as="targetPoint" />
          </mxGeometry>
        </mxCell>
        <mxCell id="GUA7JTQh2Uvn7c-vaKez-85" value="CANトランシーバ&lt;br&gt;MCP2562" style="rounded=0;whiteSpace=wrap;html=1;" vertex="1" parent="1">
          <mxGeometry x="800.5" y="1000" width="120" height="60" as="geometry" />
        </mxCell>
        <mxCell id="GUA7JTQh2Uvn7c-vaKez-86" value="CANインターフェイス" style="text;html=1;strokeColor=none;fillColor=none;align=center;verticalAlign=middle;whiteSpace=wrap;rounded=0;fontSize=18;" vertex="1" parent="1">
          <mxGeometry x="665" y="960" width="190" height="30" as="geometry" />
        </mxCell>
        <mxCell id="GUA7JTQh2Uvn7c-vaKez-87" value="LoRa" style="text;html=1;strokeColor=none;fillColor=none;align=center;verticalAlign=middle;whiteSpace=wrap;rounded=0;" vertex="1" parent="1">
          <mxGeometry x="280.5" y="1000" width="60" height="30" as="geometry" />
        </mxCell>
        <mxCell id="GUA7JTQh2Uvn7c-vaKez-89" value="" style="edgeStyle=orthogonalEdgeStyle;rounded=0;orthogonalLoop=1;jettySize=auto;html=1;fillColor=#fff2cc;strokeColor=#d6b656;strokeWidth=2;" edge="1" parent="1" source="GUA7JTQh2Uvn7c-vaKez-88" target="GUA7JTQh2Uvn7c-vaKez-63">
          <mxGeometry relative="1" as="geometry" />
        </mxCell>
        <mxCell id="GUA7JTQh2Uvn7c-vaKez-88" value="Arduino&lt;br&gt;MKR GPS&amp;nbsp;Shield" style="rounded=0;whiteSpace=wrap;html=1;" vertex="1" parent="1">
          <mxGeometry x="361" y="620" width="120" height="60" as="geometry" />
        </mxCell>
        <mxCell id="GUA7JTQh2Uvn7c-vaKez-90" value="" style="endArrow=none;html=1;rounded=0;strokeWidth=6;" edge="1" parent="1">
          <mxGeometry width="50" height="50" relative="1" as="geometry">
            <mxPoint x="980" y="580" as="sourcePoint" />
            <mxPoint x="980" y="1170" as="targetPoint" />
            <Array as="points">
              <mxPoint x="979.5" y="950" />
            </Array>
          </mxGeometry>
        </mxCell>
        <mxCell id="GUA7JTQh2Uvn7c-vaKez-93" style="edgeStyle=orthogonalEdgeStyle;rounded=0;orthogonalLoop=1;jettySize=auto;html=1;fillColor=#f8cecc;strokeColor=#b85450;strokeWidth=6;startArrow=block;startFill=1;endArrow=none;endFill=0;" edge="1" parent="1" source="GUA7JTQh2Uvn7c-vaKez-91">
          <mxGeometry relative="1" as="geometry">
            <mxPoint x="1060" y="890" as="targetPoint" />
          </mxGeometry>
        </mxCell>
        <mxCell id="GUA7JTQh2Uvn7c-vaKez-94" value="" style="edgeStyle=orthogonalEdgeStyle;rounded=0;orthogonalLoop=1;jettySize=auto;html=1;fillColor=#f8cecc;strokeColor=#b85450;strokeWidth=4;" edge="1" parent="1" source="GUA7JTQh2Uvn7c-vaKez-91" target="GUA7JTQh2Uvn7c-vaKez-63">
          <mxGeometry relative="1" as="geometry" />
        </mxCell>
        <mxCell id="GUA7JTQh2Uvn7c-vaKez-91" value="リニアレギュレータ&lt;br&gt;NJM7805" style="rounded=0;whiteSpace=wrap;html=1;" vertex="1" parent="1">
          <mxGeometry x="361" y="860" width="120" height="60" as="geometry" />
        </mxCell>
        <mxCell id="GUA7JTQh2Uvn7c-vaKez-95" style="edgeStyle=orthogonalEdgeStyle;rounded=0;orthogonalLoop=1;jettySize=auto;html=1;fillColor=#f8cecc;strokeColor=#b85450;startArrow=block;startFill=1;endArrow=none;endFill=0;strokeWidth=6;" edge="1" parent="1" source="GUA7JTQh2Uvn7c-vaKez-92">
          <mxGeometry relative="1" as="geometry">
            <mxPoint x="1060" y="1130" as="targetPoint" />
          </mxGeometry>
        </mxCell>
        <mxCell id="GUA7JTQh2Uvn7c-vaKez-96" value="" style="edgeStyle=orthogonalEdgeStyle;rounded=0;orthogonalLoop=1;jettySize=auto;html=1;fillColor=#f8cecc;strokeColor=#b85450;strokeWidth=4;" edge="1" parent="1" source="GUA7JTQh2Uvn7c-vaKez-92" target="GUA7JTQh2Uvn7c-vaKez-78">
          <mxGeometry relative="1" as="geometry" />
        </mxCell>
        <mxCell id="GUA7JTQh2Uvn7c-vaKez-92" value="リニアレギュレータ&lt;br&gt;NJM7805" style="rounded=0;whiteSpace=wrap;html=1;" vertex="1" parent="1">
          <mxGeometry x="361" y="1100" width="120" height="60" as="geometry" />
        </mxCell>
        <mxCell id="GUA7JTQh2Uvn7c-vaKez-97" value="" style="shape=mxgraph.arrows2.wedgeArrowDashed2;html=1;bendable=0;startWidth=38;stepSize=15;rounded=0;" edge="1" parent="1">
          <mxGeometry width="100" height="100" relative="1" as="geometry">
            <mxPoint x="160" y="720" as="sourcePoint" />
            <mxPoint x="240" y="720" as="targetPoint" />
          </mxGeometry>
        </mxCell>
        <mxCell id="GUA7JTQh2Uvn7c-vaKez-98" value="" style="shape=mxgraph.arrows2.wedgeArrowDashed2;html=1;bendable=0;startWidth=38;stepSize=15;rounded=0;" edge="1" parent="1">
          <mxGeometry width="100" height="100" relative="1" as="geometry">
            <mxPoint x="240" y="800" as="sourcePoint" />
            <mxPoint x="155" y="800" as="targetPoint" />
          </mxGeometry>
        </mxCell>
        <mxCell id="GUA7JTQh2Uvn7c-vaKez-99" value="" style="shape=mxgraph.arrows2.wedgeArrowDashed2;html=1;bendable=0;startWidth=38;stepSize=15;rounded=0;" edge="1" parent="1">
          <mxGeometry width="100" height="100" relative="1" as="geometry">
            <mxPoint x="150" y="959" as="sourcePoint" />
            <mxPoint x="240" y="959" as="targetPoint" />
          </mxGeometry>
        </mxCell>
        <mxCell id="GUA7JTQh2Uvn7c-vaKez-100" value="コマンドアップリンク" style="text;html=1;strokeColor=none;fillColor=none;align=center;verticalAlign=middle;whiteSpace=wrap;rounded=0;fontSize=16;fontStyle=0" vertex="1" parent="1">
          <mxGeometry x="-40" y="790" width="200" height="20" as="geometry" />
        </mxCell>
        <mxCell id="GUA7JTQh2Uvn7c-vaKez-101" value="汎用ダウンリンク" style="text;html=1;strokeColor=none;fillColor=none;align=center;verticalAlign=middle;whiteSpace=wrap;rounded=0;fontSize=16;fontStyle=0" vertex="1" parent="1">
          <mxGeometry x="-40" y="710" width="200" height="20" as="geometry" />
        </mxCell>
        <mxCell id="GUA7JTQh2Uvn7c-vaKez-102" value="高速ダウンリンク" style="text;html=1;strokeColor=none;fillColor=none;align=center;verticalAlign=middle;whiteSpace=wrap;rounded=0;fontSize=16;fontStyle=0" vertex="1" parent="1">
          <mxGeometry x="-40" y="950" width="200" height="20" as="geometry" />
        </mxCell>
        <mxCell id="GUA7JTQh2Uvn7c-vaKez-106" value="" style="endArrow=none;html=1;rounded=0;strokeWidth=6;fillColor=#f8cecc;strokeColor=#b85450;" edge="1" parent="1">
          <mxGeometry width="50" height="50" relative="1" as="geometry">
            <mxPoint y="1160" as="sourcePoint" />
            <mxPoint x="80" y="1160" as="targetPoint" />
          </mxGeometry>
        </mxCell>
        <mxCell id="GUA7JTQh2Uvn7c-vaKez-107" value="12V POWER" style="text;html=1;strokeColor=none;fillColor=none;align=left;verticalAlign=middle;whiteSpace=wrap;rounded=0;fontSize=16;" vertex="1" parent="1">
          <mxGeometry x="90" y="1150" width="150" height="20" as="geometry" />
        </mxCell>
        <mxCell id="GUA7JTQh2Uvn7c-vaKez-108" value="" style="endArrow=none;html=1;rounded=0;shape=link;fillColor=#f8cecc;strokeColor=#b85450;strokeWidth=4;" edge="1" parent="1">
          <mxGeometry width="50" height="50" relative="1" as="geometry">
            <mxPoint x="80" y="1180" as="sourcePoint" />
            <mxPoint y="1180" as="targetPoint" />
          </mxGeometry>
        </mxCell>
        <mxCell id="GUA7JTQh2Uvn7c-vaKez-109" value="12V POWER BUS" style="text;html=1;strokeColor=none;fillColor=none;align=left;verticalAlign=middle;whiteSpace=wrap;rounded=0;fontSize=16;" vertex="1" parent="1">
          <mxGeometry x="90" y="1170" width="190" height="20" as="geometry" />
        </mxCell>
        <mxCell id="GUA7JTQh2Uvn7c-vaKez-110" value="" style="endArrow=none;html=1;rounded=0;strokeWidth=4;fillColor=#f8cecc;strokeColor=#b85450;" edge="1" parent="1">
          <mxGeometry width="50" height="50" relative="1" as="geometry">
            <mxPoint y="1140" as="sourcePoint" />
            <mxPoint x="80" y="1140" as="targetPoint" />
          </mxGeometry>
        </mxCell>
        <mxCell id="GUA7JTQh2Uvn7c-vaKez-111" value="5V POWER" style="text;html=1;strokeColor=none;fillColor=none;align=left;verticalAlign=middle;whiteSpace=wrap;rounded=0;fontSize=16;" vertex="1" parent="1">
          <mxGeometry x="90" y="1130" width="150" height="20" as="geometry" />
        </mxCell>
        <mxCell id="GUA7JTQh2Uvn7c-vaKez-114" value="" style="endArrow=none;html=1;rounded=0;shape=link;fillColor=#dae8fc;strokeColor=#6c8ebf;strokeWidth=4;" edge="1" parent="1">
          <mxGeometry width="50" height="50" relative="1" as="geometry">
            <mxPoint x="80" y="1120" as="sourcePoint" />
            <mxPoint y="1120" as="targetPoint" />
          </mxGeometry>
        </mxCell>
        <mxCell id="GUA7JTQh2Uvn7c-vaKez-115" value="CAN BUS" style="text;html=1;strokeColor=none;fillColor=none;align=left;verticalAlign=middle;whiteSpace=wrap;rounded=0;fontSize=16;" vertex="1" parent="1">
          <mxGeometry x="90" y="1110" width="190" height="20" as="geometry" />
        </mxCell>
        <mxCell id="GUA7JTQh2Uvn7c-vaKez-116" value="" style="endArrow=none;html=1;rounded=0;strokeWidth=2;fillColor=#dae8fc;strokeColor=#6c8ebf;" edge="1" parent="1">
          <mxGeometry width="50" height="50" relative="1" as="geometry">
            <mxPoint y="1100" as="sourcePoint" />
            <mxPoint x="80" y="1100" as="targetPoint" />
          </mxGeometry>
        </mxCell>
        <mxCell id="GUA7JTQh2Uvn7c-vaKez-117" value="CAN" style="text;html=1;strokeColor=none;fillColor=none;align=left;verticalAlign=middle;whiteSpace=wrap;rounded=0;fontSize=16;" vertex="1" parent="1">
          <mxGeometry x="90" y="1090" width="150" height="20" as="geometry" />
        </mxCell>
        <mxCell id="GUA7JTQh2Uvn7c-vaKez-118" value="" style="endArrow=none;html=1;rounded=0;strokeWidth=2;fillColor=#d5e8d4;strokeColor=#82b366;" edge="1" parent="1">
          <mxGeometry width="50" height="50" relative="1" as="geometry">
            <mxPoint y="1080" as="sourcePoint" />
            <mxPoint x="80" y="1080" as="targetPoint" />
          </mxGeometry>
        </mxCell>
        <mxCell id="GUA7JTQh2Uvn7c-vaKez-119" value="SPI" style="text;html=1;strokeColor=none;fillColor=none;align=left;verticalAlign=middle;whiteSpace=wrap;rounded=0;fontSize=16;" vertex="1" parent="1">
          <mxGeometry x="90" y="1070" width="150" height="20" as="geometry" />
        </mxCell>
        <mxCell id="GUA7JTQh2Uvn7c-vaKez-120" value="" style="endArrow=none;html=1;rounded=0;strokeWidth=2;fillColor=#ffe6cc;strokeColor=#d79b00;" edge="1" parent="1">
          <mxGeometry width="50" height="50" relative="1" as="geometry">
            <mxPoint y="1060" as="sourcePoint" />
            <mxPoint x="80" y="1060" as="targetPoint" />
          </mxGeometry>
        </mxCell>
        <mxCell id="GUA7JTQh2Uvn7c-vaKez-121" value="I2C" style="text;html=1;strokeColor=none;fillColor=none;align=left;verticalAlign=middle;whiteSpace=wrap;rounded=0;fontSize=16;" vertex="1" parent="1">
          <mxGeometry x="90" y="1050" width="150" height="20" as="geometry" />
        </mxCell>
      </root>
    </mxGraphModel>
  </diagram>
</mxfile>
